<svg width="244" height="142" viewBox="0 0 244 142" fill="none" xmlns="http://www.w3.org/2000/svg">
<path d="M143.034 61V26.0909H166.148V32.1761H150.415V40.4943H164.614V46.5795H150.415V61H143.034ZM171.112 61V26.0909H194.635V32.1761H178.493V40.4943H193.425V46.5795H178.493V54.9148H194.703V61H171.112ZM212.878 61H200.503V26.0909H212.98C216.491 26.0909 219.514 26.7898 222.048 28.1875C224.582 29.5739 226.531 31.5682 227.895 34.1705C229.27 36.7727 229.957 39.8864 229.957 43.5114C229.957 47.1477 229.27 50.2727 227.895 52.8864C226.531 55.5 224.571 57.5057 222.014 58.9034C219.469 60.3011 216.423 61 212.878 61ZM207.884 54.6761H212.571C214.753 54.6761 216.588 54.2898 218.077 53.517C219.577 52.733 220.702 51.5227 221.452 49.8864C222.213 48.2386 222.594 46.1136 222.594 43.5114C222.594 40.9318 222.213 38.8239 221.452 37.1875C220.702 35.5511 219.582 34.3466 218.094 33.5739C216.605 32.8011 214.77 32.4148 212.588 32.4148H207.884V54.6761Z" fill="black"/>
<path d="M164.597 84.0909H171.977V106.761C171.977 109.307 171.369 111.534 170.153 113.443C168.949 115.352 167.261 116.841 165.091 117.909C162.92 118.966 160.392 119.494 157.506 119.494C154.608 119.494 152.074 118.966 149.903 117.909C147.733 116.841 146.045 115.352 144.841 113.443C143.636 111.534 143.034 109.307 143.034 106.761V84.0909H150.415V106.131C150.415 107.46 150.705 108.642 151.284 109.676C151.875 110.71 152.705 111.523 153.773 112.114C154.841 112.705 156.085 113 157.506 113C158.938 113 160.182 112.705 161.239 112.114C162.307 111.523 163.131 110.71 163.71 109.676C164.301 108.642 164.597 107.46 164.597 106.131V84.0909ZM178.05 119V84.0909H191.822C194.47 84.0909 196.726 84.5966 198.589 85.608C200.453 86.608 201.874 88 202.851 89.7841C203.839 91.5568 204.334 93.6023 204.334 95.9205C204.334 98.2386 203.834 100.284 202.834 102.057C201.834 103.83 200.385 105.21 198.487 106.199C196.601 107.187 194.317 107.682 191.635 107.682H182.857V101.767H190.442C191.862 101.767 193.033 101.523 193.953 101.034C194.885 100.534 195.578 99.8466 196.033 98.9716C196.499 98.0852 196.732 97.0682 196.732 95.9205C196.732 94.7614 196.499 93.75 196.033 92.8864C195.578 92.0114 194.885 91.3352 193.953 90.858C193.021 90.3693 191.839 90.125 190.408 90.125H185.43V119H178.05Z" fill="#F00000" fill-opacity="0.66"/>
<path d="M126.639 8.91265H115.907V5.26364C115.907 2.47337 113.761 0.326782 110.97 0.326782H107.965C105.175 0.326782 103.028 2.47312 103.028 5.26364V8.91265H92.2959C91.008 8.91265 90.1495 9.77113 90.1495 11.059C90.1495 12.3468 91.008 13.2053 92.2959 13.2053H103.028V16.8543C103.028 19.43 104.96 21.3618 107.321 21.7912V28.6598C104.746 29.5183 103.028 31.8795 103.028 34.6697V42.1823L90.1498 51.8412V49.9094C90.1498 47.3337 88.218 45.4019 85.6423 45.4019H70.832V34.6697C70.832 33.3819 69.9735 32.5234 68.6856 32.5234C67.3978 32.5234 66.5393 33.3819 66.5393 34.6697V45.4019H62.2464V38.9627C62.2464 37.6748 61.3879 36.8163 60.1 36.8163C58.8122 36.8163 57.9537 37.6748 57.9537 38.9627V45.4019H43.1434C40.5677 45.4019 38.6359 47.3337 38.6359 49.9094V51.8412L25.7573 42.1823V34.6697C25.7573 31.8795 24.0401 29.5183 21.4644 28.6598V21.7912C23.8256 21.5766 25.7573 19.43 25.7573 16.8543V13.2056H36.4895C37.7774 13.2056 38.6359 12.3471 38.6359 11.0592C38.6359 9.77138 37.7774 8.9129 36.4895 8.9129H25.7571V5.26364C25.7571 2.47337 23.6107 0.326782 20.8202 0.326782H17.8154C15.0251 0.326782 12.8785 2.47312 12.8785 5.26364V8.91265H2.14634C0.858486 8.91265 0 9.77113 0 11.059C0 12.3468 0.858486 13.2053 2.14634 13.2053H12.8785V16.8543C12.8785 19.43 14.8103 21.3618 17.1715 21.7912V28.6598C14.5958 29.5183 12.8785 31.8795 12.8785 34.6697V69.0124C12.8785 72.6614 15.6688 75.4517 19.3178 75.4517C22.9668 75.4517 25.7571 72.6614 25.7571 69.0124V60.8559L36.7038 70.3003C28.7622 75.4517 20.1763 93.0523 19.3178 107.648H32.1964C33.2697 91.7645 46.1482 79.7446 51.5142 79.7446H55.8071V84.0376H51.0851C48.9387 84.0376 47.2215 85.7548 47.2215 87.9011V114.732C47.2215 116.878 48.9387 118.595 51.0851 118.595H77.9152C80.0615 118.595 81.7787 116.878 81.7787 114.732V87.9011C81.7787 85.7548 80.0615 84.0376 77.9152 84.0376H72.9783V79.7446H77.2713C82.6372 79.7446 95.3012 91.7647 96.5891 107.648H109.468C108.609 93.0523 100.238 75.4517 92.2961 70.3003L103.243 60.8559V69.0124C103.243 72.6614 106.033 75.4517 109.682 75.4517C113.331 75.4517 116.121 72.6614 116.121 69.0124V34.6697C116.121 31.8795 114.404 29.5183 111.829 28.6598V21.7912C114.19 21.5766 116.121 19.43 116.121 16.8543V13.2056H126.854C128.142 13.2056 129 12.3471 129 11.0592C128.785 9.77113 127.927 8.91265 126.639 8.91265ZM17.1715 5.26364C17.1715 4.83427 17.386 4.61971 17.8154 4.61971H20.8205C21.2498 4.61971 21.4644 4.83427 21.4644 5.26364V8.91265H17.1715V5.26364ZM20.8202 17.4983H17.8154C17.386 17.4983 17.1715 17.2837 17.1715 16.8543V13.2056H21.4644V16.8546C21.4642 17.2837 21.2496 17.4983 20.8202 17.4983ZM38.6356 66.4367L25.7571 55.2754V47.5483L38.6356 57.2072V66.4367ZM55.8071 56.1339H72.9786C74.2664 56.1339 75.1249 56.9924 75.1249 58.2802C75.1249 59.5681 74.2664 60.4266 72.9786 60.4266H55.8071C54.5193 60.4266 53.6608 59.5681 53.6608 58.2802C53.6608 56.9924 54.5193 56.1339 55.8071 56.1339ZM71.9053 105.287C71.4759 105.502 71.2614 105.502 70.832 105.502C70.4026 105.502 69.9735 105.287 69.5441 105.072L64.3927 101.638L59.2413 105.072C58.5974 105.502 57.7389 105.502 57.095 105.072C56.2365 104.858 55.8071 104.214 55.8071 103.355V88.3303H60.1V99.277L63.1051 97.1307C63.749 96.7013 64.8223 96.7013 65.4663 97.1307L68.4713 99.277V88.3303H72.7643V103.355H72.9788C72.9783 104.214 72.5492 104.858 71.9053 105.287ZM60.0998 84.0376V79.7446H68.6854V84.0376H60.0998ZM79.4176 69.0124H49.3678C48.08 69.0124 47.2215 68.154 47.2215 66.8661C47.2215 65.5782 48.08 64.7198 49.3678 64.7198H79.4179C80.7057 64.7198 81.5642 65.5782 81.5642 66.8661C81.5642 68.154 80.7055 69.0124 79.4176 69.0124ZM103.028 55.0609L90.1498 66.2222V56.9926L103.028 47.3337V55.0609V55.0609ZM111.614 16.8543C111.614 17.2837 111.399 17.4983 110.97 17.4983H107.965C107.536 17.4983 107.321 17.2837 107.321 16.8543V13.2056H111.614V16.8543ZM111.614 8.91265H107.321V5.26364C107.321 4.83427 107.536 4.61971 107.965 4.61971H110.97C111.399 4.61971 111.614 4.83427 111.614 5.26364V8.91265Z" fill="black"/>
</svg>
