<svg width="66" height="53" viewBox="0 0 66 53" fill="none" xmlns="http://www.w3.org/2000/svg">
<path d="M65.7971 0.163131C65.591 -0.000199527 65.2869 -0.0457572 65.0212 0.0486358L1.81282 22.7518C0.891679 23.0825 0.231604 23.7553 0.0514845 24.5513C-0.132852 25.3473 0.184533 26.1648 0.89576 26.737L14.5129 37.6725L51.6094 10.7416C51.7467 10.64 51.9611 10.6444 52.0941 10.7512C52.2273 10.8576 52.2314 11.0301 52.1072 11.1428L18.5766 40.9339L20.3033 51.6485C20.3594 52.008 20.6424 52.3194 21.0491 52.4737C21.4609 52.6294 22.2706 52.4847 22.5536 52.2014C24.1396 50.6258 26.9388 47.5925 26.9388 47.5925L32.7037 52.28C33.4191 52.8521 34.4348 53.1061 35.4253 52.959C36.4194 52.8124 37.2554 52.2833 37.6666 51.5448L65.9384 0.784661C66.0584 0.573806 65.9987 0.326571 65.7971 0.163131Z" fill="#F00000" fill-opacity="0.66"/>
</svg>
