<svg width="68" height="68" viewBox="0 0 68 68" fill="none" xmlns="http://www.w3.org/2000/svg">
<path d="M66.1547 34.2916C65.9507 34.2517 62.2919 33.5438 57.3821 33.1818C57.4059 32.7307 57.4185 32.2766 57.4185 31.8194C57.4185 17.6959 45.928 6.20551 31.8045 6.20551C17.6809 6.20551 6.19027 17.6959 6.19027 31.8194C6.19027 34.7972 6.70292 37.6569 7.64117 40.3177C4.36628 40.5933 1.98603 41.0538 1.84529 41.0814L0 41.4433L0.803706 43.1433C1.05148 43.6675 6.95791 56.0239 14.356 59.7618C17.0258 61.1105 19.5228 61.7944 21.7779 61.7948C21.7784 61.7948 21.7786 61.7948 21.7789 61.7948C25.1375 61.7948 27.8878 60.2776 29.6184 57.4988C31.8887 60.2115 35.0841 61.6732 38.8656 61.6732C41.878 61.6732 45.227 60.753 48.8194 58.9381C58.8207 53.885 66.8589 37.0673 67.1963 36.3536L68 34.6536L66.1547 34.2916ZM52.9074 23.4906C51.942 22.7002 50.8301 21.9604 49.5783 21.2825C48.0291 20.4434 46.3152 19.7288 44.4808 19.1435C43.8955 17.3088 43.1809 15.5948 42.3415 14.0453C41.6636 12.7937 40.9239 11.6818 40.1333 10.7164C45.9544 13.0222 50.602 17.6698 52.9074 23.4906ZM54.3026 30.3558H46.3244C46.2404 27.6647 45.9237 25.0513 45.3941 22.5906C50.1482 24.4483 53.4954 27.2297 54.3026 30.3558ZM33.2682 9.32119C36.3944 10.1286 39.1758 13.4759 41.0336 18.2301C38.5729 17.7005 35.9596 17.3839 33.2682 17.2997V9.32119ZM33.2682 20.228C36.4154 20.3364 39.4113 20.7908 42.1078 21.5162C42.8331 24.2128 43.2876 27.2086 43.3961 30.3556H33.2682V20.228ZM33.2682 33.2831H43.3961C43.3916 33.4124 43.3867 33.5418 43.3812 33.6706C40.94 34.1235 38.8304 34.7949 37.0715 35.6835C35.6671 36.3929 34.399 37.1501 33.2682 37.9527V33.2831ZM30.3407 9.32119V17.2997C27.6494 17.3839 25.036 17.7005 22.5752 18.2301C24.4331 13.4759 27.2146 10.1286 30.3407 9.32119ZM30.3407 20.228V30.3558H20.2128C20.3211 27.2087 20.7756 24.2128 21.5011 21.5162C24.1976 20.7908 27.1937 20.3365 30.3407 20.228ZM23.4754 10.7167C22.6848 11.6821 21.9452 12.794 21.2673 14.0456C20.428 15.595 19.7134 17.3091 19.1281 19.1437C17.2934 19.7291 15.5796 20.4436 14.0301 21.2828C12.7784 21.9607 11.6666 22.7004 10.7012 23.4908C13.0069 17.6696 17.6544 13.0222 23.4754 10.7167ZM18.2148 22.5905C17.6852 25.0513 17.3685 27.6645 17.2845 30.3558H9.30612C10.1133 27.2297 13.4607 24.4483 18.2148 22.5905ZM17.2845 33.2831C17.363 35.7933 17.6431 38.236 18.1102 40.5503C17.6087 40.4666 17.0897 40.3945 16.5529 40.3349C12.6879 38.5128 10.0155 36.031 9.30612 33.2831H17.2845ZM26.4072 56.9128C25.4364 57.9841 23.9716 58.8672 21.7789 58.8672H21.7782C19.9858 58.867 17.9327 58.2889 15.676 57.1489C10.6949 54.632 6.20134 47.083 4.34817 43.6387C6.19396 43.3746 9.14843 43.0408 12.2844 43.0408C16.4591 43.0408 19.7088 43.6132 21.9435 44.7421C23.957 45.7592 25.4978 46.8978 26.5549 48.1246C26.3447 50.2586 26.7516 52.4432 27.7709 54.5849L12.9725 47.656L26.4072 56.9128ZM24.4849 42.7908C24.0937 42.5645 23.6876 42.3436 23.2634 42.1292C22.6621 41.8254 22.004 41.5575 21.2961 41.322C20.6902 38.8377 20.3107 36.1221 20.2128 33.2829H30.3407V40.4431C29.4709 41.3446 28.7452 42.2909 28.1646 43.2798C26.9033 43.1706 25.6733 43.0061 24.4849 42.7908ZM47.4994 56.325C44.3201 57.9313 41.4151 58.7455 38.8656 58.7455C35.4641 58.7455 33.2615 57.2928 31.85 55.6003L52.174 42.5818L30.5476 53.6071C30.5432 53.5984 30.5383 53.5895 30.534 53.5807C27.6401 47.8518 30.5041 42.2809 38.3915 38.2964C41.5401 36.7058 46.0897 35.8992 51.9141 35.8992C56.7115 35.8992 61.2152 36.466 63.6688 36.8408C61.3667 41.2205 54.8404 52.6162 47.4994 56.325Z" fill="#20BE06"/>
</svg>
