<svg width="58" height="68" viewBox="0 0 58 68" fill="none" xmlns="http://www.w3.org/2000/svg">
<path d="M56.9232 64.6777C55.8865 62.7058 32.2631 17.7741 31.1981 15.7483C31.1981 14.399 31.1981 13.8084 31.1981 12.4557H43.8092C44.6443 12.4557 45.4072 11.9828 45.7789 11.235C46.1505 10.4872 46.0666 9.59346 45.5623 8.92794L43.5165 6.22786L45.5624 3.52777C46.0666 2.86225 46.1505 1.96842 45.7791 1.22068C45.4073 0.472946 44.6443 0 43.8093 0H28.9987C27.784 0 26.7992 0.984807 26.7992 2.19951C26.7992 5.14185 26.7992 13.0002 26.7992 15.7481C26.3794 16.5467 1.79387 63.3084 1.02183 64.7769C0.252848 66.2398 1.31601 67.9999 2.96874 67.9999H55.0289C55.0301 67.9999 55.0313 67.9999 55.0319 67.9999C56.7441 68.0001 57.7873 66.1305 56.9232 64.6777ZM41.0238 45.0304C40.5943 45.4598 40.0313 45.6746 39.4686 45.6746C38.9056 45.6746 38.3427 45.4599 37.9134 45.0303L34.3584 41.4753L30.8034 45.0303C30.3908 45.4428 29.8314 45.6746 29.2481 45.6746C28.6648 45.6746 28.1054 45.4429 27.6929 45.0303L24.1378 41.4753L20.5828 45.0303C20.1702 45.4428 19.6108 45.6746 19.0274 45.6746C18.4441 45.6746 17.8847 45.4429 17.4721 45.0303L16.7523 44.3105C17.447 42.9886 28.5744 21.8242 28.9984 21.0176C29.4232 21.8257 40.8262 43.5142 41.4167 44.6373L41.0238 45.0304Z" fill="#0C31B3"/>
</svg>
